<svg xmlns="http://www.w3.org/2000/svg" viewBox="0 0 220 220" role="img" aria-label="Cartoon penguin Pablo">
  <defs>
    <linearGradient id="pabloBelly" x1="0" y1="0" x2="0" y2="1">
      <stop offset="0" stop-color="#ffffff"/>
      <stop offset="1" stop-color="#e8f2ff"/>
    </linearGradient>
    <linearGradient id="pabloBody" x1="0" y1="0" x2="0" y2="1">
      <stop offset="0" stop-color="#31465f"/>
      <stop offset="1" stop-color="#1e2f46"/>
    </linearGradient>
  </defs>

  <ellipse cx="110" cy="190" rx="64" ry="14" fill="#6f96b8" opacity="0.3"/>
  <ellipse cx="110" cy="116" rx="64" ry="76" fill="url(#pabloBody)"/>
  <ellipse cx="110" cy="125" rx="43" ry="52" fill="url(#pabloBelly)"/>

  <ellipse cx="58" cy="118" rx="18" ry="34" fill="#233a54" transform="rotate(-20 58 118)"/>
  <ellipse cx="162" cy="118" rx="18" ry="34" fill="#233a54" transform="rotate(20 162 118)"/>

  <circle cx="110" cy="70" r="42" fill="url(#pabloBody)"/>
  <ellipse cx="92" cy="72" rx="9" ry="12" fill="#ffffff"/>
  <ellipse cx="128" cy="72" rx="9" ry="12" fill="#ffffff"/>
  <circle cx="94" cy="74" r="4" fill="#13263b"/>
  <circle cx="126" cy="74" r="4" fill="#13263b"/>

  <polygon points="110,84 94,94 110,100 126,94" fill="#ff9d3f"/>
  <rect x="74" y="49" width="72" height="7" rx="4" fill="#ffbd3f"/>
  <circle cx="74" cy="52" r="6" fill="#ffbd3f"/>
  <circle cx="146" cy="52" r="6" fill="#ffbd3f"/>

  <ellipse cx="86" cy="178" rx="20" ry="10" fill="#ff9f47"/>
  <ellipse cx="134" cy="178" rx="20" ry="10" fill="#ff9f47"/>
</svg>
