<svg xmlns="http://www.w3.org/2000/svg" viewBox="0 0 220 220" role="img" aria-label="Cartoon penguin Peaches">
  <defs>
    <linearGradient id="peachBelly" x1="0" y1="0" x2="0" y2="1">
      <stop offset="0" stop-color="#ffffff"/>
      <stop offset="1" stop-color="#ecf7ff"/>
    </linearGradient>
    <linearGradient id="peachBody" x1="0" y1="0" x2="0" y2="1">
      <stop offset="0" stop-color="#35577c"/>
      <stop offset="1" stop-color="#223d5c"/>
    </linearGradient>
  </defs>

  <ellipse cx="110" cy="190" rx="64" ry="14" fill="#78a5ca" opacity="0.28"/>
  <ellipse cx="110" cy="116" rx="64" ry="76" fill="url(#peachBody)"/>
  <ellipse cx="110" cy="125" rx="43" ry="52" fill="url(#peachBelly)"/>

  <ellipse cx="58" cy="118" rx="18" ry="34" fill="#284867" transform="rotate(-24 58 118)"/>
  <ellipse cx="162" cy="118" rx="18" ry="34" fill="#284867" transform="rotate(24 162 118)"/>

  <circle cx="110" cy="70" r="42" fill="url(#peachBody)"/>
  <ellipse cx="92" cy="72" rx="9" ry="12" fill="#ffffff"/>
  <ellipse cx="128" cy="72" rx="9" ry="12" fill="#ffffff"/>
  <circle cx="94" cy="74" r="4" fill="#13263b"/>
  <circle cx="126" cy="74" r="4" fill="#13263b"/>

  <polygon points="110,84 94,94 110,100 126,94" fill="#ffa043"/>

  <path d="M72 55 C82 40, 98 42, 106 56" stroke="#ff7fb0" stroke-width="8" fill="none" stroke-linecap="round"/>
  <path d="M148 55 C138 40, 122 42, 114 56" stroke="#ff7fb0" stroke-width="8" fill="none" stroke-linecap="round"/>
  <circle cx="110" cy="52" r="6" fill="#ff9cc2"/>

  <ellipse cx="86" cy="178" rx="20" ry="10" fill="#ff9f47"/>
  <ellipse cx="134" cy="178" rx="20" ry="10" fill="#ff9f47"/>
</svg>
