<svg xmlns="http://www.w3.org/2000/svg" viewBox="0 0 900 600" role="img" aria-label="Photograph-style penguin holding a fish on ice">
  <defs>
    <radialGradient id="bgGlow" cx="56%" cy="45%" r="65%">
      <stop offset="0" stop-color="#f3fbff"/>
      <stop offset="1" stop-color="#b7d8ee"/>
    </radialGradient>
    <linearGradient id="ice" x1="0" y1="0" x2="1" y2="1">
      <stop offset="0" stop-color="#eaf7ff"/>
      <stop offset="1" stop-color="#b7d5ea"/>
    </linearGradient>
    <linearGradient id="body" x1="0" y1="0" x2="0" y2="1">
      <stop offset="0" stop-color="#3a4f66"/>
      <stop offset="1" stop-color="#1d2c3f"/>
    </linearGradient>
    <linearGradient id="belly" x1="0" y1="0" x2="0" y2="1">
      <stop offset="0" stop-color="#ffffff"/>
      <stop offset="1" stop-color="#dceaf6"/>
    </linearGradient>
    <linearGradient id="fish" x1="0" y1="0" x2="1" y2="1">
      <stop offset="0" stop-color="#72bfdc"/>
      <stop offset="1" stop-color="#3f89aa"/>
    </linearGradient>
    <filter id="softBlur" x="-20%" y="-20%" width="140%" height="140%">
      <feGaussianBlur stdDeviation="6"/>
    </filter>
  </defs>

  <rect width="900" height="600" fill="url(#bgGlow)"/>
  <ellipse cx="615" cy="472" rx="250" ry="64" fill="#8fb8d0" opacity="0.38" filter="url(#softBlur)"/>
  <ellipse cx="615" cy="478" rx="238" ry="56" fill="url(#ice)" opacity="0.82"/>

  <ellipse cx="620" cy="325" rx="150" ry="185" fill="url(#body)"/>
  <ellipse cx="620" cy="350" rx="98" ry="128" fill="url(#belly)"/>
  <ellipse cx="500" cy="334" rx="42" ry="90" fill="#26384f" transform="rotate(-16 500 334)"/>
  <ellipse cx="740" cy="334" rx="42" ry="90" fill="#26384f" transform="rotate(18 740 334)"/>

  <circle cx="620" cy="176" r="104" fill="url(#body)"/>
  <ellipse cx="577" cy="182" rx="20" ry="28" fill="#f7fbff"/>
  <ellipse cx="663" cy="182" rx="20" ry="28" fill="#f7fbff"/>
  <circle cx="581" cy="188" r="9" fill="#112236"/>
  <circle cx="659" cy="188" r="9" fill="#112236"/>
  <polygon points="620,220 586,238 620,252 654,238" fill="#ff9d45"/>

  <ellipse cx="556" cy="470" rx="40" ry="16" fill="#ff9d45"/>
  <ellipse cx="684" cy="470" rx="40" ry="16" fill="#ff9d45"/>

  <ellipse cx="455" cy="338" rx="86" ry="30" fill="url(#fish)" transform="rotate(-8 455 338)"/>
  <polygon points="526,338 564,316 560,360" fill="#4e9cbe"/>
  <circle cx="410" cy="337" r="5" fill="#f2fbff"/>
  <path d="M398 350 Q454 372 508 352" fill="none" stroke="#cbe9f7" stroke-width="4" opacity="0.7"/>

  <ellipse cx="640" cy="122" rx="42" ry="22" fill="#ffffff" opacity="0.2"/>
</svg>
